<svg width="124" height="36" viewBox="0 0 124 36" fill="none" xmlns="http://www.w3.org/2000/svg">
<path d="M23.1 8.09961H0L3.3 14.6996H23.1C26.7451 14.6996 29.7 17.6545 29.7 21.2995C29.7 24.9446 26.7451 27.8995 23.1 27.8995C28.5676 27.8995 33 23.4671 33 17.9995C33 12.532 28.5676 8.09961 23.1 8.09961Z" fill="#099250"/>
<path opacity="0.3" d="M15.5871 26.0756C14.49 23.8814 16.0856 21.2998 18.5387 21.2998H23.0992C24.9218 21.2998 26.3992 22.7773 26.3992 24.5998C26.3992 26.4223 24.9218 27.8998 23.0992 27.8998H18.5387C17.2888 27.8998 16.1461 27.1936 15.5871 26.0756Z" fill="#099250"/>
<path opacity="0.6" d="M23.1016 14.7002H6.60156L9.90156 21.3002H23.1016C24.9241 21.3002 26.4016 22.7776 26.4016 24.6001C26.4016 26.4227 24.9241 27.9001 23.1016 27.9001C26.7466 27.9001 29.7016 24.9452 29.7016 21.3002C29.7016 17.6551 26.7466 14.7002 23.1016 14.7002Z" fill="#099250"/>
<path d="M107.385 13.0319C106.657 13.0319 106.125 12.8989 105.789 12.6329C105.467 12.3529 105.306 11.9189 105.306 11.3309C105.306 10.7289 105.467 10.2949 105.789 10.0289C106.125 9.74889 106.657 9.60889 107.385 9.60889C108.099 9.60889 108.624 9.74889 108.96 10.0289C109.296 10.2949 109.464 10.7289 109.464 11.3309C109.464 11.9189 109.296 12.3529 108.96 12.6329C108.624 12.8989 108.099 13.0319 107.385 13.0319Z" fill="#0A0D12"/>
<path fill-rule="evenodd" clip-rule="evenodd" d="M49.761 11.4359C48.963 11.0719 47.997 10.8899 46.863 10.8899H40.5V24.7499H44.112V20.1299H46.863C47.997 20.1299 48.963 19.9479 49.761 19.5839C50.559 19.2199 51.168 18.6949 51.588 18.0089C52.008 17.3229 52.218 16.4899 52.218 15.5099C52.218 14.5299 52.008 13.6969 51.588 13.0109C51.168 12.3249 50.559 11.7999 49.761 11.4359ZM47.997 16.9589C47.619 17.2669 47.052 17.4209 46.296 17.4209H44.112V13.5989H46.296C47.052 13.5989 47.619 13.7599 47.997 14.0819C48.389 14.3899 48.585 14.8659 48.585 15.5099C48.585 16.1539 48.389 16.6369 47.997 16.9589Z" fill="#0A0D12"/>
<path fill-rule="evenodd" clip-rule="evenodd" d="M55.4172 24.3089C56.2712 24.7429 57.2792 24.9599 58.4412 24.9599C59.1692 24.9599 59.8622 24.8549 60.5202 24.6449C61.1922 24.4349 61.7662 24.1269 62.2422 23.7209C62.7322 23.3009 63.0752 22.7899 63.2712 22.1879L60.4152 21.2429C60.2612 21.6209 60.0232 21.9149 59.7012 22.1249C59.3932 22.3349 58.9732 22.4399 58.4412 22.4399C57.9652 22.4399 57.5592 22.3489 57.2232 22.1669C56.8872 21.9709 56.6282 21.6629 56.4462 21.2429C56.3451 21.0018 56.2721 20.7218 56.2271 20.4029H63.3972C63.4252 20.2349 63.4462 20.0249 63.4602 19.7729C63.4742 19.5209 63.4812 19.2689 63.4812 19.0169C63.4812 18.0509 63.2782 17.1969 62.8722 16.4549C62.4662 15.6989 61.8712 15.1109 61.0872 14.6909C60.3172 14.2569 59.3792 14.0399 58.2732 14.0399C57.1952 14.0399 56.2362 14.2569 55.3962 14.6909C54.5702 15.1249 53.9262 15.7479 53.4642 16.5599C53.0022 17.3719 52.7712 18.3519 52.7712 19.4999C52.7712 20.6479 53.0022 21.6279 53.4642 22.4399C53.9262 23.2519 54.5772 23.8749 55.4172 24.3089ZM56.2478 18.4919C56.2856 18.2514 56.3377 18.0344 56.4042 17.8409C56.5722 17.3929 56.8102 17.0639 57.1182 16.8539C57.4402 16.6439 57.8252 16.5389 58.2732 16.5389C58.9032 16.5389 59.3652 16.7629 59.6592 17.2109C59.8822 17.5352 60.0244 17.9622 60.086 18.4919H56.2478Z" fill="#0A0D12"/>
<path d="M68.7334 18.1139C68.5234 18.4639 68.4184 18.9119 68.4184 19.4579V24.7499H64.8484V14.2499H67.9984L68.1454 16.5179C68.4114 15.7339 68.8034 15.1249 69.3214 14.6909C69.8534 14.2569 70.5254 14.0399 71.3374 14.0399C71.6034 14.0399 71.8274 14.0609 72.0094 14.1029C72.2054 14.1449 72.3594 14.2009 72.4714 14.2709L72.1144 17.2109C71.9744 17.1549 71.7924 17.1129 71.5684 17.0849C71.3584 17.0429 71.0994 17.0219 70.7914 17.0219C70.3714 17.0219 69.9794 17.1129 69.6154 17.2949C69.2514 17.4769 68.9574 17.7499 68.7334 18.1139Z" fill="#0A0D12"/>
<path fill-rule="evenodd" clip-rule="evenodd" d="M75.2187 24.3089C76.0727 24.7429 77.0807 24.9599 78.2427 24.9599C78.9707 24.9599 79.6637 24.8549 80.3217 24.6449C80.9937 24.4349 81.5677 24.1269 82.0437 23.7209C82.5337 23.3009 82.8767 22.7899 83.0727 22.1879L80.2167 21.2429C80.0627 21.6209 79.8247 21.9149 79.5027 22.1249C79.1947 22.3349 78.7747 22.4399 78.2427 22.4399C77.7667 22.4399 77.3607 22.3489 77.0247 22.1669C76.6887 21.9709 76.4297 21.6629 76.2477 21.2429C76.1466 21.0018 76.0736 20.7218 76.0287 20.4029H83.1987C83.2267 20.2349 83.2477 20.0249 83.2617 19.7729C83.2757 19.5209 83.2827 19.2689 83.2827 19.0169C83.2827 18.0509 83.0797 17.1969 82.6737 16.4549C82.2677 15.6989 81.6727 15.1109 80.8887 14.6909C80.1187 14.2569 79.1807 14.0399 78.0747 14.0399C76.9967 14.0399 76.0377 14.2569 75.1977 14.6909C74.3717 15.1249 73.7277 15.7479 73.2657 16.5599C72.8037 17.3719 72.5727 18.3519 72.5727 19.4999C72.5727 20.6479 72.8037 21.6279 73.2657 22.4399C73.7277 23.2519 74.3787 23.8749 75.2187 24.3089ZM76.0493 18.4919C76.0871 18.2514 76.1392 18.0344 76.2057 17.8409C76.3737 17.3929 76.6117 17.0639 76.9197 16.8539C77.2417 16.6439 77.6267 16.5389 78.0747 16.5389C78.7047 16.5389 79.1667 16.7629 79.4607 17.2109C79.6837 17.5352 79.826 17.9622 79.8875 18.4919H76.0493Z" fill="#0A0D12"/>
<path fill-rule="evenodd" clip-rule="evenodd" d="M89.5849 29.2649C88.6749 29.2649 87.8419 29.1529 87.0859 28.9289C86.3299 28.7189 85.6999 28.3409 85.1959 27.7949C84.7059 27.2629 84.3909 26.5139 84.2509 25.5479L87.6949 25.1069C87.7509 25.7229 87.9469 26.1919 88.2829 26.5139C88.6329 26.8499 89.1369 27.0179 89.7949 27.0179C90.4109 27.0179 90.8799 26.8219 91.2019 26.4299C91.5379 26.0379 91.7059 25.4849 91.7059 24.7709V22.7339C91.3979 23.2519 90.9709 23.6719 90.4249 23.9939C89.8929 24.3019 89.2629 24.4559 88.5349 24.4559C87.6529 24.4559 86.8829 24.2529 86.2249 23.8469C85.5809 23.4409 85.0839 22.8529 84.7339 22.0829C84.3839 21.2989 84.2089 20.3679 84.2089 19.2899C84.2089 18.1839 84.3979 17.2389 84.7759 16.4549C85.1539 15.6709 85.6649 15.0759 86.3089 14.6699C86.9669 14.2499 87.7089 14.0399 88.5349 14.0399C89.4589 14.0399 90.2079 14.2709 90.7819 14.7329C91.3559 15.1809 91.7619 15.7689 91.9999 16.4969L92.0839 14.2499H95.2969V23.9099C95.2969 25.2119 95.0659 26.2479 94.6039 27.0179C94.1419 27.8019 93.4839 28.3689 92.6299 28.7189C91.7759 29.0829 90.7609 29.2649 89.5849 29.2649ZM89.7739 21.8519C90.3619 21.8519 90.8309 21.6349 91.1809 21.2009C91.5309 20.7669 91.7059 20.1159 91.7059 19.2479C91.7059 18.4079 91.5379 17.7709 91.2019 17.3369C90.8659 16.8889 90.3899 16.6649 89.7739 16.6649C89.3679 16.6649 89.0179 16.7629 88.7239 16.9589C88.4299 17.1549 88.1989 17.4419 88.0309 17.8199C87.8769 18.1979 87.7999 18.6739 87.7999 19.2479C87.7999 20.1439 87.9749 20.8019 88.3249 21.2219C88.6749 21.6419 89.1579 21.8519 89.7739 21.8519Z" fill="#0A0D12"/>
<path d="M100.503 16.5179L100.356 14.2499H97.2064V24.7499H100.776V19.4579C100.776 18.9119 100.881 18.4639 101.091 18.1139C101.315 17.7499 101.609 17.4769 101.973 17.2949C102.337 17.1129 102.729 17.0219 103.149 17.0219C103.457 17.0219 103.716 17.0429 103.926 17.0849C104.15 17.1129 104.332 17.1549 104.472 17.2109L104.829 14.2709C104.717 14.2009 104.563 14.1449 104.367 14.1029C104.185 14.0609 103.961 14.0399 103.695 14.0399C102.883 14.0399 102.211 14.2569 101.679 14.6909C101.161 15.1249 100.769 15.7339 100.503 16.5179Z" fill="#0A0D12"/>
<path d="M119.859 14.4599C119.327 14.1799 118.697 14.0399 117.969 14.0399C117.157 14.0399 116.443 14.2289 115.827 14.6069C115.211 14.9709 114.728 15.5239 114.378 16.2659L114.372 16.2797L114.273 14.2499H111.081V24.7499H114.651V19.2059C114.651 18.6319 114.735 18.1629 114.903 17.7989C115.071 17.4349 115.302 17.1759 115.596 17.0219C115.89 16.8539 116.205 16.7699 116.541 16.7699C116.989 16.7699 117.346 16.9099 117.612 17.1899C117.892 17.4699 118.032 17.9879 118.032 18.7439V23.9729C118.032 24.6169 118.165 25.1559 118.431 25.5899C118.697 26.0239 119.061 26.3459 119.523 26.5559C119.999 26.7799 120.538 26.8919 121.14 26.8919C121.63 26.8919 122.015 26.8499 122.295 26.7659C122.589 26.6959 122.911 26.5769 123.261 26.4089L123.513 24.2669C123.345 24.3509 123.184 24.4069 123.03 24.4349C122.89 24.4629 122.715 24.4769 122.505 24.4769C122.253 24.4769 122.036 24.4069 121.854 24.2669C121.686 24.1129 121.602 23.8609 121.602 23.5109V17.7569C121.602 16.9309 121.448 16.2449 121.14 15.6989C120.832 15.1529 120.405 14.7399 119.859 14.4599Z" fill="#0A0D12"/>
<path d="M109.17 14.2499V24.7499H105.6V14.2499H109.17Z" fill="#0A0D12"/>
</svg>
