<svg width="123" height="36" viewBox="0 0 123 36" fill="none" xmlns="http://www.w3.org/2000/svg">
<path d="M16 14V6H0V14L16 14Z" fill="#EAAA08"/>
<path d="M15.9997 21.9999C11.5814 21.9999 7.99968 25.5816 7.99968 29.9999L0.000977389 30.0002L0.000977391 29.7938C0.110922 21.0865 7.17627 14.0552 15.8967 14.0002L24 14.0006V30.0006H16L15.9997 21.9999Z" fill="#EAAA08"/>
<path d="M31.502 24.75V9.98779H35.309V21.3885H41.9712V24.75H31.502Z" fill="#0A0D12"/>
<path d="M48.2727 24.9525C47.0442 24.9525 46.0182 24.723 45.1947 24.264C44.3712 23.7915 43.7502 23.13 43.3317 22.2795C42.9267 21.429 42.7242 20.4435 42.7242 19.323V19.1003C42.7242 17.9123 42.947 16.9133 43.3925 16.1033C43.838 15.2798 44.4522 14.652 45.2352 14.22C46.0317 13.788 46.943 13.572 47.969 13.572C49.1165 13.572 50.0885 13.788 50.885 14.22C51.695 14.6385 52.3092 15.2325 52.7278 16.002C53.1462 16.758 53.3555 17.649 53.3555 18.675V20.1735H46.349V20.6798C46.349 21.1388 46.5177 21.5168 46.8552 21.8138C47.1927 22.1108 47.6248 22.2593 48.1512 22.2593C48.6238 22.2593 49.0085 22.1648 49.3055 21.9758C49.6025 21.7733 49.778 21.51 49.832 21.186H53.234C53.1935 21.9285 52.9572 22.5833 52.5252 23.1503C52.0933 23.7173 51.5128 24.1628 50.7838 24.4868C50.0548 24.7973 49.2177 24.9525 48.2727 24.9525ZM46.349 17.9055V18.0068H49.832V17.9055C49.832 17.325 49.67 16.8998 49.346 16.6298C49.022 16.3463 48.6035 16.2045 48.0905 16.2045C47.5775 16.2045 47.159 16.353 46.835 16.65C46.511 16.9335 46.349 17.352 46.349 17.9055Z" fill="#0A0D12"/>
<path d="M58.3362 24.9525C57.3507 24.9525 56.5475 24.7298 55.9265 24.2843C55.319 23.8388 54.8735 23.211 54.59 22.401C54.3065 21.5775 54.1647 20.6258 54.1647 19.5458V19.0193C54.1647 17.0888 54.5427 15.705 55.2987 14.868C56.0547 14.0175 57.0672 13.5923 58.3362 13.5923C59.0247 13.5923 59.6457 13.7408 60.1992 14.0378C60.7662 14.3213 61.1847 14.7398 61.4547 15.2933H61.6167L61.799 13.7745H65.1807V24.75H61.6167V23.2515H61.4547C61.1847 23.7915 60.7662 24.21 60.1992 24.507C59.6457 24.804 59.0247 24.9525 58.3362 24.9525ZM59.7942 22.0568C60.3477 22.0568 60.7865 21.8948 61.1105 21.5708C61.4345 21.2468 61.5965 20.7743 61.5965 20.1533V18.3713C61.5965 17.7638 61.4345 17.298 61.1105 16.974C60.7865 16.6365 60.3477 16.4678 59.7942 16.4678C59.2137 16.4678 58.7615 16.6365 58.4375 16.974C58.127 17.3115 57.9717 17.7773 57.9717 18.3713V20.1938C57.9717 20.7743 58.127 21.2333 58.4375 21.5708C58.7615 21.8948 59.2137 22.0568 59.7942 22.0568Z" fill="#0A0D12"/>
<path d="M67.2815 28.1318V13.7745H70.6632L70.8657 15.2933H71.0277C71.2977 14.7398 71.7095 14.3213 72.263 14.0378C72.83 13.7408 73.4577 13.5923 74.1462 13.5923C75.1452 13.5923 75.9485 13.815 76.556 14.2605C77.1635 14.706 77.609 15.3405 77.8925 16.164C78.176 16.974 78.3177 17.9258 78.3177 19.0193V19.5458C78.3177 21.4628 77.9397 22.8465 77.1837 23.697C76.4277 24.534 75.4152 24.9525 74.1462 24.9525C73.4577 24.9525 72.83 24.804 72.263 24.507C71.7095 24.21 71.2977 23.7915 71.0277 23.2515H70.8657V28.1318H67.2815ZM72.6882 22.0568C73.2687 22.0568 73.7142 21.8948 74.0247 21.5708C74.3487 21.2333 74.5107 20.7743 74.5107 20.1938V18.3713C74.5107 17.7773 74.3487 17.3115 74.0247 16.974C73.7142 16.6365 73.2687 16.4678 72.6882 16.4678C72.1482 16.4678 71.7095 16.6365 71.372 16.974C71.048 17.298 70.886 17.7638 70.886 18.3713V20.1533C70.886 20.7743 71.048 21.2468 71.372 21.5708C71.7095 21.8948 72.1482 22.0568 72.6882 22.0568Z" fill="#0A0D12"/>
<path d="M78.7096 28.1318V25.3373H82.5166V23.5553L78.2034 13.7745H81.9294L83.8734 19.323L84.1974 20.376H84.2986L84.6226 19.323L86.6476 13.7745H90.3534L86.0806 23.5553V25.9245C86.0806 26.667 85.8646 27.2205 85.4326 27.585C85.0141 27.9495 84.4539 28.1318 83.7519 28.1318H78.7096Z" fill="#0A0D12"/>
<path d="M95.6562 24.9525C94.4277 24.9525 93.4017 24.723 92.5782 24.264C91.7547 23.7915 91.1337 23.13 90.7152 22.2795C90.3102 21.429 90.1077 20.4435 90.1077 19.323V19.1003C90.1077 17.9123 90.3304 16.9133 90.7759 16.1033C91.2214 15.2798 91.8357 14.652 92.6187 14.22C93.4152 13.788 94.3264 13.572 95.3524 13.572C96.4999 13.572 97.4719 13.788 98.2684 14.22C99.0784 14.6385 99.6927 15.2325 100.111 16.002C100.53 16.758 100.739 17.649 100.739 18.675V20.1735H93.7324V20.6798C93.7324 21.1388 93.9012 21.5168 94.2387 21.8138C94.5762 22.1108 95.0082 22.2593 95.5347 22.2593C96.0072 22.2593 96.3919 22.1648 96.6889 21.9758C96.9859 21.7733 97.1614 21.51 97.2154 21.186H100.617C100.577 21.9285 100.341 22.5833 99.9087 23.1503C99.4767 23.7173 98.8962 24.1628 98.1672 24.4868C97.4382 24.7973 96.6012 24.9525 95.6562 24.9525ZM93.7324 17.9055V18.0068H97.2154V17.9055C97.2154 17.325 97.0534 16.8998 96.7294 16.6298C96.4054 16.3463 95.9869 16.2045 95.4739 16.2045C94.9609 16.2045 94.5424 16.353 94.2184 16.65C93.8944 16.9335 93.7324 17.352 93.7324 17.9055Z" fill="#0A0D12"/>
<path d="M105.72 24.9525C104.734 24.9525 103.931 24.7298 103.31 24.2843C102.702 23.8388 102.257 23.211 101.973 22.401C101.69 21.5775 101.548 20.6258 101.548 19.5458V19.0193C101.548 17.0888 101.926 15.705 102.682 14.868C103.438 14.0175 104.451 13.5923 105.72 13.5923C106.408 13.5923 107.029 13.7408 107.583 14.0378C108.15 14.3213 108.568 14.7398 108.838 15.2933H109L109.182 13.7745H112.564V24.75H109V23.2515H108.838C108.568 23.7915 108.15 24.21 107.583 24.507C107.029 24.804 106.408 24.9525 105.72 24.9525ZM107.178 22.0568C107.731 22.0568 108.17 21.8948 108.494 21.5708C108.818 21.2468 108.98 20.7743 108.98 20.1533V18.3713C108.98 17.7638 108.818 17.298 108.494 16.974C108.17 16.6365 107.731 16.4678 107.178 16.4678C106.597 16.4678 106.145 16.6365 105.821 16.974C105.51 17.3115 105.355 17.7773 105.355 18.3713V20.1938C105.355 20.7743 105.51 21.2333 105.821 21.5708C106.145 21.8948 106.597 22.0568 107.178 22.0568Z" fill="#0A0D12"/>
<path d="M114.665 24.75V16.4678C114.665 15.6578 114.908 15.0098 115.394 14.5238C115.893 14.0243 116.541 13.7745 117.338 13.7745H121.793V16.65H118.249V24.75H114.665Z" fill="#0A0D12"/>
</svg>
