<svg width="123" height="36" viewBox="0 0 123 36" fill="none" xmlns="http://www.w3.org/2000/svg">
<rect x="15.4297" y="15.4287" width="5.14285" height="5.14285" fill="#0A0D12"/>
<rect opacity="0.6" x="15.4297" y="20.5713" width="5.14285" height="5.14285" fill="#0A0D12"/>
<rect opacity="0.32" x="20.5703" y="20.5713" width="5.14285" height="5.14285" fill="#0A0D12"/>
<rect opacity="0.07" x="25.7148" y="20.5713" width="5.14285" height="5.14285" fill="#0A0D12"/>
<rect opacity="0.32" x="10.2852" y="20.5713" width="5.14285" height="5.14285" fill="#0A0D12"/>
<rect opacity="0.07" x="5.14258" y="20.5713" width="5.14285" height="5.14285" fill="#0A0D12"/>
<rect opacity="0.32" x="15.4297" y="25.7144" width="5.14285" height="5.14285" fill="#0A0D12"/>
<rect opacity="0.07" x="10.2852" y="25.7144" width="5.14285" height="5.14285" fill="#0A0D12"/>
<rect opacity="0.07" x="20.5703" y="25.7144" width="5.14285" height="5.14285" fill="#0A0D12"/>
<rect opacity="0.07" x="15.4297" y="30.8569" width="5.14285" height="5.14285" fill="#0A0D12"/>
<rect opacity="0.6" x="10.2852" y="15.4287" width="5.14285" height="5.14285" fill="#0A0D12"/>
<rect opacity="0.32" x="5.14258" y="15.4287" width="5.14285" height="5.14285" fill="#0A0D12"/>
<rect opacity="0.07" y="15.4287" width="5.14285" height="5.14285" fill="#0A0D12"/>
<rect opacity="0.6" x="20.5703" y="15.4287" width="5.14285" height="5.14285" fill="#0A0D12"/>
<rect opacity="0.32" x="25.7148" y="15.4287" width="5.14285" height="5.14285" fill="#0A0D12"/>
<rect opacity="0.07" x="30.8574" y="15.4287" width="5.14285" height="5.14285" fill="#0A0D12"/>
<rect opacity="0.6" x="15.4297" y="10.2856" width="5.14285" height="5.14285" fill="#0A0D12"/>
<rect opacity="0.32" x="10.2852" y="10.2856" width="5.14285" height="5.14285" fill="#0A0D12"/>
<rect opacity="0.07" x="10.2852" y="5.14307" width="5.14285" height="5.14285" fill="#0A0D12"/>
<rect opacity="0.07" x="5.14258" y="10.2856" width="5.14285" height="5.14285" fill="#0A0D12"/>
<rect opacity="0.32" x="20.5703" y="10.2856" width="5.14285" height="5.14285" fill="#0A0D12"/>
<rect opacity="0.07" x="20.5703" y="5.14307" width="5.14285" height="5.14285" fill="#0A0D12"/>
<rect opacity="0.07" x="25.7148" y="10.2856" width="5.14285" height="5.14285" fill="#0A0D12"/>
<rect opacity="0.32" x="15.4297" y="5.14307" width="5.14285" height="5.14285" fill="#0A0D12"/>
<rect opacity="0.07" x="15.4297" width="5.14285" height="5.14285" fill="#0A0D12"/>
<path d="M42 24.7498V10.8463H47.9865C52.335 10.8463 54.207 12.6013 54.207 15.6433C54.207 18.6268 52.218 20.4208 48.1815 20.4013H44.808V24.7498H42ZM48.006 13.2643H44.808V17.9833H48.084C50.3265 17.9833 51.3405 17.2423 51.3405 15.6238C51.3405 13.9663 50.268 13.2643 48.006 13.2643Z" fill="#0A0D12"/>
<path d="M58.3859 24.7498H55.4609V13.5373H58.3859V24.7498Z" fill="#0A0D12"/>
<path d="M59.6007 19.1338C59.6007 15.3703 62.2527 13.2253 65.9772 13.2253C69.6237 13.2253 71.9442 14.8828 72.2757 18.1393V18.1588H69.2337V18.1198C68.9802 16.4233 67.8882 15.6043 65.9967 15.6043C63.8322 15.6043 62.5452 16.8133 62.5452 19.1338V19.2898C62.5452 21.4543 63.7152 22.6438 65.9772 22.6438C67.9857 22.6438 68.9997 21.7858 69.2532 20.0698V20.0503H72.2757V20.0893C72.0222 23.3458 69.7992 25.0813 65.9187 25.0813C61.6482 25.0813 59.6007 22.9558 59.6007 19.3093V19.1338Z" fill="#0A0D12"/>
<path d="M74.8625 16.0333H72.2885V13.5373H75.116C75.116 13.5373 75.1355 10.9243 75.116 10.5148H77.534V13.5373H81.2195V16.0333H77.534V19.3678C77.534 20.2063 77.612 20.8108 77.7095 21.2203C77.9435 22.0003 78.626 22.1758 80.0495 22.1758H81.2195V24.7498H79.3085C75.779 24.7498 74.8625 23.4628 74.8625 19.8553V16.0333Z" fill="#0A0D12"/>
<path d="M81.5778 19.2118C81.5778 15.4483 84.2493 13.2253 87.9933 13.2253C89.3973 13.2253 90.5478 13.4788 91.4643 14.0053C93.2973 15.0583 94.2333 16.8328 94.2333 18.9973V20.1868H84.3468C84.6393 21.8833 85.8093 22.7803 88.0128 22.7803C89.6313 22.7803 90.5283 22.3123 90.9768 21.4348H94.0968C93.2193 23.8723 91.0743 25.0813 87.8568 25.0813C84.1518 25.0813 81.5778 23.4628 81.5778 19.3873V19.2118ZM84.3858 18.0418H91.4058C91.1523 16.3453 90.0798 15.4483 88.0518 15.4483C85.9653 15.4483 84.7563 16.4038 84.3858 18.0418Z" fill="#0A0D12"/>
<path d="M98.3207 24.7498H95.4542V9.81284H98.3207V24.7498Z" fill="#0A0D12"/>
<path d="M98.931 24.7498L104.781 10.8463H107.745L113.712 24.7498H110.768L109.5 21.6688H103.124L101.915 24.7498H98.931ZM104.06 19.3093H108.525L106.263 13.7713L104.06 19.3093Z" fill="#0A0D12"/>
<path d="M117.188 13.3813H114.126V10.8463H122.94V13.3813H119.898V22.0978H122.94V24.7498H114.126V22.0978H117.188V13.3813Z" fill="#0A0D12"/>
<path d="M58.8525 10.4098C58.8525 11.4495 58.0097 12.2923 56.97 12.2923C55.9303 12.2923 55.0875 11.4495 55.0875 10.4098C55.0875 9.37017 55.9303 8.52734 56.97 8.52734C58.0097 8.52734 58.8525 9.37017 58.8525 10.4098Z" fill="#0A0D12"/>
</svg>
