<svg width="114" height="36" viewBox="0 0 114 36" fill="none" xmlns="http://www.w3.org/2000/svg">
<path d="M15.0001 3C6.71572 3 0 9.71575 0 18.0001C0 26.2844 6.71572 33.0001 15.0001 33.0001C22.4326 33.0001 28.6025 27.5944 29.7927 20.5001H29.6851C28.575 24.8132 24.6597 28.0001 20.0001 28.0001C14.4772 28.0001 10 23.5229 10 18.0001C10 12.4772 14.4772 8.00002 20.0001 8.00002C24.6597 8.00002 28.575 11.187 29.6851 15.5H29.7927C28.6025 8.40574 22.4326 3 15.0001 3Z" fill="#A4BCFD"/>
<path d="M0 18.0001C0 9.71575 6.71575 3 15.0001 3C22.4326 3 28.6025 8.40574 29.7927 15.5H19.685C18.5749 11.187 14.6597 8.00002 10 8.00002C4.47717 8.00002 0 12.4772 0 18.0001Z" fill="#3538CD"/>
<path d="M0 17.9999C0 26.2842 6.71575 33 15.0001 33C22.4326 33 28.6025 27.5943 29.7927 20.5H19.685C18.5749 24.813 14.6597 28 10 28C4.47717 28 0 23.5228 0 17.9999Z" fill="#3538CD"/>
<path fill-rule="evenodd" clip-rule="evenodd" d="M49.3635 15.5264H52.3129L52.2997 15.4401C51.8144 12.2635 48.6869 9.98242 45.1568 9.98242C40.764 9.98242 37.4258 13.3886 37.4258 17.8657C37.4258 22.364 40.7636 25.7924 45.1568 25.7924C48.7779 25.7924 51.7266 23.4864 52.3428 20.1413L52.3591 20.0527H49.3828L49.3687 20.1097C48.9214 21.9203 47.1935 23.1629 45.1568 23.1629C42.3536 23.1629 40.2075 20.8741 40.2075 17.8657C40.2075 14.8796 42.353 12.6119 45.1568 12.6119C47.1733 12.6119 48.8583 13.791 49.3478 15.4724L49.3635 15.5264Z" fill="#0A0D12"/>
<path fill-rule="evenodd" clip-rule="evenodd" d="M64.7815 25.5749V14.7892H62.1955V16.5085C61.4052 15.2787 60.1292 14.5717 58.486 14.5717C55.5894 14.5717 53.3215 17.0691 53.3215 20.1712C53.3215 23.2728 55.589 25.7924 58.486 25.7924C60.1292 25.7924 61.4052 25.0854 62.1955 23.8556V25.5749H64.7815ZM59.008 23.3369C57.2448 23.3369 55.864 21.9357 55.864 20.1712C55.864 18.4288 57.2445 17.0272 59.008 17.0272C60.8156 17.0272 62.1737 18.3859 62.1737 20.1712C62.1737 21.9785 60.8153 23.3369 59.008 23.3369Z" fill="#0A0D12"/>
<path fill-rule="evenodd" clip-rule="evenodd" d="M70.3343 21.4544V17.2447H73.1183V14.7892H70.3343V11.9399H67.7483V14.7892H65.7256V17.2447H67.7483V21.4979C67.7483 22.8609 68.1443 23.9148 68.8465 24.6282C69.5488 25.3416 70.5485 25.7054 71.7383 25.7054C72.1332 25.7054 72.6832 25.6617 73.0605 25.5729L73.1183 25.5593V23.1615L73.0236 23.1873C72.7935 23.2501 72.5182 23.2717 72.2603 23.2717C71.6833 23.2717 71.2033 23.1379 70.8684 22.8494C70.5355 22.5626 70.3343 22.1127 70.3343 21.4544Z" fill="#0A0D12"/>
<path fill-rule="evenodd" clip-rule="evenodd" d="M84.7906 25.5749V14.7892H82.2046V16.5085C81.4143 15.2787 80.1384 14.5717 78.4951 14.5717C75.5986 14.5717 73.3306 17.0691 73.3306 20.1712C73.3306 23.2728 75.5982 25.7924 78.4951 25.7924C80.1384 25.7924 81.4143 25.0854 82.2046 23.8556V25.5749H84.7906ZM79.0171 23.3369C77.2539 23.3369 75.8731 21.9357 75.8731 20.1712C75.8731 18.4288 77.2536 17.0272 79.0171 17.0272C80.8248 17.0272 82.1829 18.3859 82.1829 20.1712C82.1829 21.9785 80.8244 23.3369 79.0171 23.3369Z" fill="#0A0D12"/>
<path fill-rule="evenodd" clip-rule="evenodd" d="M89.3212 25.5749V10.1999H86.757V25.5749H89.3212Z" fill="#0A0D12"/>
<path fill-rule="evenodd" clip-rule="evenodd" d="M105.546 25.9904H102.982L102.985 26.0687C103.052 27.5892 103.87 28.5783 104.937 29.1838C106.001 29.7875 107.315 30.0119 108.389 30.0119C109.948 30.0119 111.32 29.5453 112.304 28.6969C113.289 27.8475 113.88 26.6193 113.88 25.1084V24.5092H113.902V14.7892H111.316V16.4506C110.525 15.2589 109.249 14.5717 107.606 14.5717C104.711 14.5717 102.442 17.0019 102.442 20.0189C102.442 23.0356 104.711 25.4879 107.606 25.4879C109.249 25.4879 110.525 24.8007 111.316 23.5909L111.294 25.1954C111.294 26.7752 109.968 27.8392 108.324 27.8392C107.573 27.8392 106.891 27.6726 106.392 27.3663C105.894 27.0609 105.58 26.6189 105.55 26.0613L105.546 25.9904ZM108.128 23.0977C106.363 23.0977 104.984 21.7165 104.984 20.0189C104.984 18.322 106.363 16.9619 108.128 16.9619C109.938 16.9619 111.294 18.2792 111.294 20.0189C111.294 21.7593 109.937 23.0977 108.128 23.0977Z" fill="#0A0D12"/>
<path fill-rule="evenodd" clip-rule="evenodd" d="M101.415 14.673L101.452 14.5724H98.6481L98.6256 14.6021C98.0609 15.346 97.168 15.815 96.157 15.815C95.1331 15.815 94.2503 15.346 93.6959 14.6026L93.6734 14.5724H90.8816L90.9177 14.6728C91.6896 16.8227 93.7042 18.2923 96.157 18.2923C98.6095 18.2923 100.637 16.8229 101.415 14.673Z" fill="#0A0D12"/>
<path fill-rule="evenodd" clip-rule="evenodd" d="M99.0683 25.7924H101.656L101.666 25.7305C101.726 25.3955 101.756 25.0488 101.756 24.6928C101.756 21.4976 99.3086 19.0715 96.157 19.0715C93.0049 19.0715 90.5792 21.498 90.5792 24.6928C90.5792 25.0487 90.6097 25.3954 90.6685 25.7304L90.6793 25.7924H93.2622L93.2311 25.6947C93.1318 25.3823 93.0782 25.0458 93.0782 24.6928C93.0782 22.9052 94.4169 21.527 96.157 21.527C97.8763 21.527 99.2575 22.9062 99.2575 24.6928C99.2575 25.0456 99.2023 25.3819 99.1004 25.6942L99.0683 25.7924Z" fill="#0A0D12"/>
</svg>
