<svg width="119" height="36" viewBox="0 0 119 36" fill="none" xmlns="http://www.w3.org/2000/svg">
<path d="M24 19.5C24 23.6421 20.6421 27 16.5 27C12.3579 27 9 23.6421 9 19.5H3C3 26.9558 9.04416 33 16.5 33C23.9558 33 30 26.9558 30 19.5C30 12.0442 23.9558 6 16.5 6V12C20.6421 12 24 15.3579 24 19.5Z" fill="#004EEB"/>
<path opacity="0.5" d="M7.5 3C7.5 7.14214 4.14214 10.5 0 10.5V16.5C7.45584 16.5 13.5 10.4558 13.5 3H7.5Z" fill="#004EEB"/>
<path d="M37.5 10.3726H47.8275V13.2683H41.0438V16.1033H47.5845V18.9788H41.0438V21.8543H47.9895V24.7501H37.5V10.3726Z" fill="#0A0D12"/>
<path d="M48.9398 17.3993C49.3448 15.0301 51.1268 13.7746 54.1238 13.7746C57.5663 13.7746 59.2673 15.3541 59.2673 18.4928V21.5506C59.2673 22.3403 59.5913 22.4618 59.9558 22.4618H60.3203V24.7501L59.8343 24.7906C59.2673 24.8108 56.7968 25.1956 56.4323 23.1301C55.8653 24.2843 54.6503 24.9931 52.6051 24.9931C50.4181 24.9931 48.7576 23.8186 48.7576 21.9151C48.7576 19.9913 50.1953 19.1813 52.8481 18.6548L55.7236 18.0676C55.7236 16.5893 55.2173 15.9008 54.1036 15.9008C53.1721 15.9008 52.6051 16.4476 52.4228 17.5411L48.9398 17.3993ZM52.3418 21.7733C52.3418 22.4011 52.8481 22.8466 53.7998 22.8466C54.9743 22.8466 55.7843 21.9556 55.7843 20.1938V20.0926L54.2656 20.3761C53.1113 20.5786 52.3418 20.8216 52.3418 21.7733Z" fill="#0A0D12"/>
<path d="M67.6099 17.5613C67.4479 16.6096 66.6986 16.0426 65.8886 16.0426C65.0381 16.0426 64.4306 16.4881 64.4711 17.1968C64.5116 17.8853 65.2811 18.2093 66.2329 18.3713C69.6551 18.8776 71.1131 19.7483 71.1131 21.7531C71.1131 23.8996 69.1286 24.9931 66.1721 24.9931C62.8309 24.9931 60.8059 23.6363 60.6236 21.3278L64.1269 21.1861C64.3091 22.1378 64.9774 22.6643 66.0506 22.6643C66.7796 22.6643 67.5694 22.3808 67.5289 21.7126C67.5086 20.9228 66.6581 20.7203 65.6659 20.5381C62.3651 19.9306 60.8869 19.1206 60.8869 17.1968C60.8869 15.0301 62.7094 13.7543 65.9899 13.7543C68.8654 13.7543 70.7284 15.1111 71.0726 17.4398L67.6099 17.5613Z" fill="#0A0D12"/>
<path d="M70.8807 14.0176H74.1207L76.6317 21.1253L79.0212 14.0176H82.2612L78.0897 25.6613C77.5632 27.1396 76.5709 27.7876 74.9104 27.7876H72.8045V25.3171H74.2017C74.8902 25.3171 75.2345 25.1348 75.437 24.6286L75.6597 24.0818H74.7282L70.8807 14.0176Z" fill="#0A0D12"/>
<path d="M94.2644 10.3726V13.2683H90.0119V24.7501H86.4884V13.2683H82.2359V10.3726H94.2644Z" fill="#0A0D12"/>
<path d="M94.3473 17.3993C94.7523 15.0301 96.5343 13.7746 99.5313 13.7746C102.974 13.7746 104.675 15.3541 104.675 18.4928V21.5506C104.675 22.3403 104.999 22.4618 105.363 22.4618H105.728V24.7501L105.242 24.7906C104.675 24.8108 102.204 25.1956 101.84 23.1301C101.273 24.2843 100.058 24.9931 98.0125 24.9931C95.8255 24.9931 94.165 23.8186 94.165 21.9151C94.165 19.9913 95.6028 19.1813 98.2555 18.6548L101.131 18.0676C101.131 16.5893 100.625 15.9008 99.511 15.9008C98.5795 15.9008 98.0125 16.4476 97.8303 17.5411L94.3473 17.3993ZM97.7493 21.7733C97.7493 22.4011 98.2555 22.8466 99.2073 22.8466C100.382 22.8466 101.192 21.9556 101.192 20.1938V20.0926L99.673 20.3761C98.5188 20.5786 97.7493 20.8216 97.7493 21.7733Z" fill="#0A0D12"/>
<path d="M114.269 13.9973H118.036L114.249 19.3028L118.137 24.7501H114.371L112.265 21.4696L110.138 24.7501H106.372L110.26 19.3028L106.473 13.9973H110.219L112.265 17.1158L114.269 13.9973Z" fill="#0A0D12"/>
</svg>
