<svg width="109" height="36" viewBox="0 0 109 36" fill="none" xmlns="http://www.w3.org/2000/svg">
<path fill-rule="evenodd" clip-rule="evenodd" d="M11.4219 3.74951C9.01038 3.74951 6.78202 5.03605 5.57625 7.12451L1.24613 14.6245C0.0403552 16.713 0.0403531 19.2861 1.24612 21.3745L5.57625 28.8745C6.78202 30.963 9.01038 32.2495 11.4219 32.2495H20.0822C22.4937 32.2495 24.7221 30.963 25.9278 28.8745L30.258 21.3745C31.4637 19.2861 31.4637 16.713 30.258 14.6245L25.9278 7.12451C24.7221 5.03606 22.4937 3.74951 20.0822 3.74951H11.4219ZM20.0822 8.24951L14.6695 8.24951C13.8035 8.24951 13.2624 9.18693 13.696 9.93655C15.034 12.2494 16.3752 14.5605 17.7112 16.8745C18.1131 17.5707 18.1131 18.4284 17.7112 19.1245C16.3752 21.4385 15.034 23.7496 13.696 26.0625C13.2624 26.8121 13.8035 27.7495 14.6695 27.7495H20.0822C20.886 27.7495 21.6288 27.3207 22.0307 26.6245L26.3609 19.1245C26.7628 18.4284 26.7628 17.5707 26.3609 16.8745L22.0307 9.37451C21.6288 8.67836 20.886 8.24951 20.0822 8.24951Z" fill="#0A0D12"/>
<path d="M50.2373 15.3948H46.8352C46.4505 14.038 45.4785 13.309 44.1015 13.309C42.0158 13.309 40.821 15.0505 40.821 17.8855C40.821 20.7408 41.9955 22.4215 44.1015 22.4215C45.3975 22.4215 46.41 21.733 46.7948 20.437H50.2373C49.5285 23.4745 47.0782 25.0743 44.142 25.0743C40.0312 25.0743 37.5 22.3405 37.5 17.8855C37.5 13.4305 40.0313 10.6562 44.1825 10.6562C47.139 10.6562 49.65 12.256 50.2373 15.3948Z" fill="#0A0D12"/>
<path d="M56.3581 25.0743C53.0574 25.0743 51.0121 22.8873 51.0121 19.303C51.0121 15.5972 53.1181 13.5115 56.3581 13.5115C59.6589 13.5115 61.7244 15.739 61.7244 19.303C61.7244 22.9885 59.5981 25.0743 56.3581 25.0743ZM56.3581 22.5633C57.7959 22.5633 58.5451 21.4293 58.5451 19.303C58.5451 17.197 57.7756 16.0225 56.3581 16.0225C54.9406 16.0225 54.1914 17.1768 54.1914 19.303C54.1914 21.409 54.9609 22.5633 56.3581 22.5633Z" fill="#0A0D12"/>
<path d="M62.9579 24.7503V13.8557H66.0561V15.3745C66.7446 14.0785 67.7976 13.5115 68.9114 13.5115C69.3569 13.5115 69.7619 13.633 69.9846 13.8557V16.468C69.6201 16.387 69.2354 16.3465 68.7494 16.3465C66.8864 16.3465 66.0561 17.3995 66.0561 19.1208V24.7503H62.9579Z" fill="#0A0D12"/>
<path d="M80.888 21.166C80.321 23.677 78.296 25.0743 75.623 25.0743C72.2412 25.0743 70.1555 22.8873 70.1555 19.303C70.1555 15.5972 72.2615 13.5115 75.5015 13.5115C78.7617 13.5115 80.807 15.6783 80.807 19.2423V19.9308H73.3145C73.4765 21.6723 74.2865 22.6038 75.623 22.6038C76.6355 22.6038 77.324 22.1583 77.648 21.166H80.888ZM75.5015 15.982C74.3473 15.982 73.6182 16.7313 73.3752 18.1488H77.6075C77.3645 16.7313 76.6355 15.982 75.5015 15.982Z" fill="#0A0D12"/>
<path d="M88.7433 25.0743C84.4705 25.0743 81.838 22.3203 81.838 17.8855C81.838 13.4305 84.4705 10.6562 88.7433 10.6562C92.9958 10.6562 95.6283 13.4305 95.6283 17.8855C95.6283 22.3203 92.9958 25.0743 88.7433 25.0743ZM88.7433 22.4215C90.991 22.4215 92.3073 20.7205 92.3073 17.8855C92.3073 15.0505 90.991 13.309 88.7433 13.309C86.4753 13.309 85.159 15.0303 85.159 17.8855C85.159 20.7205 86.4753 22.4215 88.7433 22.4215Z" fill="#0A0D12"/>
<path d="M100.099 14.524C100.099 17.4603 108.199 14.9695 108.199 20.599C108.199 23.434 105.85 25.0743 102.63 25.0743C99.3702 25.0743 97.0415 23.5758 96.5555 20.437H99.9777C100.241 21.7938 101.193 22.543 102.651 22.543C104.109 22.543 104.878 21.9558 104.878 21.004C104.878 17.926 96.758 20.275 96.758 14.8278C96.758 12.5193 98.6817 10.6562 102.063 10.6562C104.919 10.6562 107.389 12.013 107.814 15.1923H104.352C104.068 13.8355 103.278 13.1875 101.942 13.1875C100.808 13.1875 100.099 13.714 100.099 14.524Z" fill="#0A0D12"/>
</svg>
